<svg width="23" height="20" viewBox="0 0 23 20" fill="none" xmlns="http://www.w3.org/2000/svg">
<path d="M4.6 20H21.85C22.4856 20 23 19.4732 23 18.8235V15.17C23 13.2922 21.5063 11.7647 19.6713 11.7647C18.674 11.7647 17.7891 11.1518 17.4185 10.2045L16.9176 8.92177C16.1943 7.07548 14.4716 5.88235 12.5287 5.88235H12.1323C10.98 5.88235 9.97939 5.04308 9.75253 3.88672C9.31231 1.63431 7.36269 0 5.11773 0H1.15C0.51436 0 0 0.526765 0 1.17647V15.2941C0 17.8889 2.06304 20 4.6 20ZM2.3 2.35294H5.11773C6.26997 2.35294 7.27061 3.19221 7.49747 4.34858C7.93769 6.60099 9.88731 8.23529 12.1323 8.23529H12.5287C13.526 8.23529 14.4109 8.84824 14.7815 9.79549L15.2824 11.0782C16.0057 12.9245 17.7284 14.1176 19.6713 14.1176C20.2384 14.1176 20.7 14.5898 20.7 15.17V17.6471H4.6C3.33208 17.6471 2.3 16.5918 2.3 15.2941V2.35294Z" fill="#F2AF29"/>
</svg>
